<svg width="165" height="165" viewBox="0 0 165 165" fill="none" xmlns="http://www.w3.org/2000/svg">
<path d="M82.5 0L83.2648 80.1461L130.992 15.7561L84.5023 81.0452L160.962 57.0061L84.975 82.5L160.962 107.994L84.5023 83.9548L130.992 149.244L83.2648 84.8539L82.5 165L81.7352 84.8539L34.0077 149.244L80.4977 83.9548L4.03783 107.994L80.025 82.5L4.03783 57.0061L80.4977 81.0452L34.0077 15.7561L81.7352 80.1461L82.5 0Z" fill="white"/>
<path d="M82.5 27.0175L82.8471 80.308L99.645 29.733L83.5075 80.5226L115.112 37.6137L84.0693 80.9307L127.386 49.8882L84.4774 81.4924L135.267 65.3549L84.6919 82.1528L137.982 82.5L84.6919 82.8471L135.267 99.645L84.4774 83.5075L127.386 115.112L84.0693 84.0693L115.112 127.386L83.5075 84.4774L99.645 135.267L82.8471 84.6919L82.5 137.982L82.1528 84.6919L65.3549 135.267L81.4924 84.4774L49.8882 127.386L80.9307 84.0693L37.6137 115.112L80.5226 83.5075L29.733 99.645L80.308 82.8471L27.0175 82.5L80.308 82.1528L29.733 65.3549L80.5226 81.4924L37.6137 49.8882L80.9307 80.9307L49.8882 37.6137L81.4924 80.5226L65.3549 29.733L82.1528 80.308L82.5 27.0175Z" fill="white"/>
</svg>
