<svg width="167" height="167" viewBox="0 0 167 167" fill="none" xmlns="http://www.w3.org/2000/svg">
<path fill-rule="evenodd" clip-rule="evenodd" d="M76.4394 2.06718C78.7328 1.66698 81.092 1.45833 83.5 1.45833C85.908 1.45833 88.2672 1.66698 90.5606 2.06718C88.1424 2.27232 85.783 2.6838 83.5 3.28394C81.2171 2.6838 78.8576 2.27232 76.4394 2.06718ZM83.5 0.541668C87.1844 0.541668 90.7573 1.0194 94.1599 1.91631C101.713 1.92103 108.796 3.93333 114.905 7.44849C122.02 9.34689 128.387 13.0796 133.468 18.1091C139.828 21.7796 145.129 27.0803 148.799 33.4403C153.835 38.4951 157.581 44.8344 159.505 51.9239C163.053 58.0581 165.084 65.1798 165.084 72.7758L165.084 72.8404C165.981 76.243 166.458 79.8157 166.458 83.5C166.458 87.1842 165.981 90.7569 165.084 94.1594C165.079 101.713 163.067 108.797 159.551 114.907C157.625 122.123 153.813 128.569 148.674 133.684C145.009 139.95 139.755 145.173 133.466 148.802C128.385 153.831 122.018 157.564 114.902 159.462C108.888 162.922 101.929 164.926 94.5069 164.991C91.0004 165.948 87.3099 166.458 83.5 166.458C79.6902 166.458 75.9996 165.948 72.4932 164.991C65.0715 164.926 58.1125 162.922 52.0979 159.462C44.982 157.564 38.6148 153.831 33.534 148.802C27.2449 145.173 21.9914 139.95 18.3256 133.684C13.1871 128.569 9.37476 122.123 7.4491 114.907C3.93336 108.797 1.92075 101.713 1.91621 94.1594C1.01938 90.7569 0.541687 87.1842 0.541687 83.5C0.541687 79.8157 1.01939 76.243 1.91625 72.8404L1.9162 72.7758C1.9162 65.1798 3.94677 58.0581 7.49472 51.9239C9.41874 44.8344 13.1655 38.4952 18.2008 33.4403C21.8715 27.0803 27.1724 21.7796 33.5325 18.1092C38.6129 13.0796 44.9796 9.3469 52.0951 7.4485C58.204 3.93334 65.2872 1.92103 72.8401 1.91631C76.2428 1.0194 79.8156 0.541668 83.5 0.541668ZM55.5434 160.225C59.7216 162.188 64.287 163.463 69.0938 163.903C66.8398 163.074 64.6773 162.055 62.6254 160.867C60.2106 160.853 57.8444 160.633 55.5434 160.225ZM76.0873 164.87C78.4911 165.311 80.9686 165.542 83.5 165.542C86.0314 165.542 88.509 165.311 90.9128 164.87C88.3714 164.676 85.8937 164.254 83.5 163.625C81.1064 164.254 78.6287 164.676 76.0873 164.87ZM81.7169 163.113C78.8674 163.743 75.9059 164.076 72.8667 164.076C72.7847 164.076 72.7028 164.075 72.6209 164.075C69.7645 163.286 67.0338 162.195 64.4655 160.838C67.5602 160.722 70.5687 160.268 73.4552 159.514C76.0475 160.996 78.8141 162.209 81.7169 163.113ZM85.2832 163.113C88.1327 163.743 91.0942 164.076 94.1333 164.076C94.2153 164.076 94.2973 164.075 94.3792 164.075C97.2355 163.286 99.9662 162.195 102.535 160.838C99.4398 160.722 96.4314 160.268 93.5449 159.514C90.9526 160.996 88.1859 162.209 85.2832 163.113ZM92.2888 159.164C89.5351 160.658 86.5901 161.844 83.5 162.676C80.41 161.844 77.465 160.658 74.7113 159.164C77.806 158.25 80.7508 156.986 83.5 155.419C86.2493 156.986 89.1941 158.25 92.2888 159.164ZM94.6666 158.849C97.7022 159.569 100.869 159.951 104.125 159.951H104.125C106.821 158.368 109.319 156.484 111.572 154.346C108.313 154.263 105.147 153.807 102.116 153.018C99.867 155.23 97.3686 157.189 94.6666 158.849ZM101.089 152.736C98.7751 154.955 96.1999 156.903 93.4145 158.53C90.2449 157.67 87.2286 156.437 84.4155 154.882C87.1978 153.2 89.7677 151.203 92.0757 148.94C94.892 150.54 97.9129 151.822 101.089 152.736ZM102.865 152.262C105.952 153.022 109.176 153.43 112.495 153.443C114.76 151.153 116.757 148.597 118.432 145.825C115.105 145.762 111.872 145.308 108.779 144.508C107.112 147.322 105.124 149.924 102.865 152.262ZM107.86 144.259C106.167 147.077 104.143 149.674 101.843 151.996C98.6358 151.117 95.5868 149.856 92.7474 148.266C95.0394 145.914 97.056 143.293 98.7452 140.454C101.592 142.064 104.647 143.349 107.86 144.259ZM109.255 143.683C112.365 144.467 115.618 144.893 118.967 144.916C120.58 142.084 121.864 139.041 122.767 135.838C119.412 135.79 116.154 135.346 113.036 134.55C112.135 137.769 110.858 140.83 109.255 143.683ZM112.15 134.314C111.247 137.535 109.959 140.595 108.338 143.441C105.116 142.549 102.054 141.271 99.2053 139.661C100.816 136.812 102.102 133.756 103.011 130.541C105.867 132.142 108.93 133.416 112.15 134.314ZM113.273 133.665C116.392 134.459 119.654 134.895 123.013 134.924C123.812 131.813 124.252 128.558 124.289 125.206C120.94 125.17 117.685 124.739 114.57 123.957C114.517 127.303 114.07 130.554 113.273 133.665ZM113.656 123.717C113.621 127.066 113.183 130.319 112.387 133.428C109.166 132.529 106.105 131.245 103.259 129.628C104.055 126.547 104.508 123.327 104.575 120.013C107.415 121.586 110.459 122.837 113.656 123.717ZM114.574 123.012C117.685 123.811 120.938 124.252 124.289 124.289C124.252 120.905 123.802 117.62 122.989 114.482C119.675 114.452 116.453 114.036 113.366 113.275C114.135 116.397 114.553 119.658 114.574 123.012ZM112.354 113.012C113.164 116.134 113.613 119.4 113.655 122.765C110.454 121.862 107.413 120.578 104.583 118.966C104.568 115.68 104.173 112.485 103.44 109.42C106.234 110.943 109.22 112.156 112.354 113.012ZM113.104 112.263C116.189 113.063 119.415 113.512 122.738 113.563C121.837 110.395 120.563 107.385 118.966 104.582C115.733 104.561 112.587 104.171 109.569 103.454C111.065 106.217 112.258 109.168 113.104 112.263ZM108.348 103.144C109.918 105.905 111.176 108.866 112.072 111.981C108.917 111.073 105.919 109.794 103.127 108.195C102.328 105.252 101.214 102.439 99.8244 99.7932C102.506 101.207 105.361 102.337 108.348 103.144ZM108.952 102.356C111.986 103.145 115.157 103.594 118.423 103.658C116.727 100.856 114.703 98.2745 112.405 95.9665C109.34 95.9489 106.353 95.6006 103.479 94.9557C105.563 97.2063 107.401 99.6872 108.952 102.356ZM101.817 94.5466C104.044 96.79 106.012 99.2908 107.673 102.001C104.615 101.097 101.708 99.8455 98.9956 98.2912C97.6374 95.9454 96.0573 93.7442 94.284 91.7163C96.6751 92.8909 99.1951 93.8433 101.817 94.5466ZM102.291 93.7235C105.226 94.4919 108.29 94.9415 111.444 95.0331C109.181 92.9038 106.674 91.0302 103.97 89.4584C101.313 89.4487 98.715 89.1907 96.1973 88.7062C98.3853 90.1854 100.425 91.8668 102.291 93.7235ZM93.5164 88.0976C95.9854 89.5496 98.2881 91.2542 100.389 93.1757C97.5635 92.2863 94.8707 91.0978 92.3476 89.6472C91.2775 88.5784 90.1495 87.5675 88.9688 86.6195C90.4456 87.1958 91.9634 87.6903 93.5164 88.0976ZM77.3354 81.8122C75.8672 81.6558 74.3763 81.5756 72.8667 81.5756C72.7864 81.5756 72.7062 81.5758 72.626 81.5763C69.8136 80.8004 67.123 79.7308 64.5893 78.4028C67.5279 78.5243 70.3863 78.9566 73.1324 79.6679C74.4867 80.4586 75.8895 81.1753 77.3354 81.8122ZM93.8702 87.2422C92.5152 86.4509 91.1115 85.7337 89.6647 85.0964C91.1023 85.2495 92.5617 85.3296 94.0391 85.3329C96.9026 86.0965 99.642 87.1639 102.221 88.4984C99.3499 88.3665 96.5564 87.9378 93.8702 87.2422ZM69.8729 81.6814C67.2036 81.8707 64.6036 82.3112 62.0966 82.9795C59.0364 82.1439 56.1196 80.961 53.3911 79.4756C56.3576 78.7693 59.4497 78.387 62.6279 78.3681C64.9144 79.6923 67.3383 80.8056 69.8729 81.6814ZM64.0197 83.4543C66.7551 82.8494 69.5936 82.5191 72.5049 82.4938C74.0672 82.9197 75.666 83.257 77.2956 83.5C75.7823 83.7257 74.2957 84.0326 72.8401 84.4163C69.8114 84.4144 66.8599 84.0824 64.0197 83.4543ZM60.4525 83.4543C57.5167 82.5402 54.7201 81.3106 52.1024 79.805C48.943 80.6678 45.9365 81.9009 43.1324 83.4547C45.9362 85.0084 48.9424 86.2414 52.1014 87.1042C54.7194 85.5983 57.5164 84.3685 60.4525 83.4543ZM53.39 87.4335C56.1188 85.9479 59.036 84.7648 62.0966 83.9291C64.6733 84.6159 67.3481 85.0622 70.0956 85.2424C67.5379 86.1099 65.0917 87.2188 62.784 88.5419C59.5505 88.5349 56.4054 88.1516 53.39 87.4335ZM51.0181 87.7493C47.9141 86.8305 44.9609 85.5603 42.2049 83.9847C39.392 85.6413 36.7952 87.6256 34.4672 89.8853C37.3058 91.4729 40.3538 92.7311 43.5592 93.6081C45.8095 91.3856 48.3113 89.4171 51.0181 87.7493ZM44.5965 93.8772C46.899 91.6631 49.461 89.7169 52.2323 88.0886C55.1449 88.855 58.1821 89.3143 61.3071 89.4298C58.7419 91.045 56.3649 92.932 54.2166 95.0504C50.9019 95.0398 47.6803 94.6338 44.5965 93.8772ZM42.8227 94.3539C39.6399 93.4405 36.613 92.1584 33.7912 90.5568C31.4692 92.9176 29.4324 95.5599 27.7368 98.4278C30.5867 100.036 33.6494 101.311 36.8721 102.2C38.5444 99.3512 40.5453 96.7185 42.8227 94.3539ZM37.7936 102.443C39.4886 99.5965 41.5202 96.974 43.8336 94.6302C46.8768 95.4207 50.055 95.8762 53.3266 95.9549C51.1028 98.2845 49.146 100.871 47.5055 103.666C44.1572 103.646 40.9045 103.223 37.7936 102.443ZM36.4026 103.021C33.187 102.114 30.1289 100.831 27.279 99.2222C25.6897 102.054 24.4284 105.094 23.5467 108.292C26.3953 109.906 29.4573 111.187 32.6797 112.082C33.5672 108.892 34.8245 105.855 36.4026 103.021ZM33.5659 112.318C34.4546 109.126 35.7216 106.092 37.3156 103.267C40.4144 104.066 43.6526 104.517 46.9863 104.576C45.4286 107.39 44.1866 110.402 43.3081 113.566C39.9485 113.541 36.6855 113.109 33.5659 112.318ZM32.4438 112.969C29.2243 112.075 26.1615 110.805 23.3056 109.209C22.5222 112.334 22.0994 115.602 22.0838 118.966C24.9151 120.58 27.9584 121.864 31.1615 122.766C31.2026 119.389 31.6452 116.108 32.4438 112.969ZM32.0759 123.013C32.098 119.629 32.5319 116.344 33.33 113.204C36.4498 113.996 39.7098 114.436 43.0655 114.48C42.2698 117.623 41.8308 120.908 41.7942 124.289C38.4423 124.252 35.1874 123.811 32.0759 123.013ZM31.1606 123.718C27.9683 122.84 24.9292 121.592 22.0923 120.023C22.1608 123.32 22.6206 126.522 23.4272 129.582C26.2222 131.178 29.2241 132.453 32.3829 133.357C31.6163 130.266 31.1945 127.038 31.1606 123.718ZM33.3995 133.633C32.5897 130.537 32.1348 127.297 32.0805 123.96C35.1943 124.74 38.447 125.17 41.7941 125.206C41.83 128.554 42.2603 131.807 43.0407 134.921C39.7156 134.875 36.4867 134.43 33.3995 133.633ZM32.6515 134.384C29.5325 133.535 26.5589 132.334 23.7761 130.826C24.695 133.91 25.969 136.841 27.5505 139.572C30.2703 141.125 33.1861 142.375 36.2517 143.274C34.7277 140.488 33.5123 137.509 32.6515 134.384ZM37.496 143.617C35.8846 140.82 34.5955 137.814 33.6793 134.649C36.7602 135.403 39.9754 135.814 43.2824 135.841C44.1608 139.033 45.4092 142.073 46.9785 144.91C43.7092 144.849 40.5339 144.404 37.496 143.617ZM36.8949 144.407C33.9572 143.617 31.1478 142.514 28.5044 141.137C30.1135 143.648 31.9902 145.971 34.0944 148.066C36.6561 149.535 39.3922 150.733 42.2642 151.623C40.2272 149.424 38.4242 147.005 36.8949 144.407ZM44.0175 152.123C41.7923 149.897 39.8231 147.415 38.1578 144.725C41.1612 145.432 44.2898 145.814 47.5046 145.833C49.1178 148.581 51.0367 151.128 53.2146 153.427C50.0454 153.341 46.9664 152.893 44.0175 152.123ZM45.3338 153.382C48.1668 154.007 51.1079 154.343 54.1248 154.359C56.2271 156.445 58.5502 158.308 61.0561 159.911C58.0946 159.781 55.2151 159.335 52.4504 158.607C49.8889 157.123 47.5036 155.368 45.3338 153.382ZM43.5458 152.947C45.2612 154.642 47.123 156.19 49.1104 157.57C44.5473 155.935 40.3603 153.509 36.7144 150.459C38.8954 151.478 41.1791 152.314 43.5458 152.947ZM85.2832 3.79568C88.1035 3.17178 91.0335 2.83981 94.04 2.83307C96.9599 3.61187 99.7509 4.70649 102.374 6.07811C99.3363 6.20356 96.3822 6.65396 93.5459 7.39547C90.9533 5.91247 88.1863 4.69974 85.2832 3.79568ZM72.9601 2.83307C75.9665 2.83981 78.8966 3.17178 81.7169 3.79568C78.8138 4.69974 76.0467 5.91247 73.4541 7.39547C70.6178 6.65396 67.6637 6.20356 64.6258 6.07812C67.2491 4.70649 70.0401 3.61187 72.9601 2.83307ZM83.5 4.23273C80.4096 5.06491 77.4643 6.25108 74.7103 7.74508C77.8053 8.6593 80.7505 9.92292 83.5 11.4903C86.2496 9.92292 89.1947 8.6593 92.2898 7.74508C89.5358 6.25108 86.5905 5.06491 83.5 4.23273ZM63.0293 6.95899C66.2307 6.97084 69.3451 7.35148 72.3324 8.06064C69.6304 9.72054 67.1319 11.6798 64.8833 13.8921C61.8805 13.1107 58.7461 12.6556 55.5202 12.5667C57.7928 10.4237 60.3114 8.53888 63.0293 6.95899ZM73.5846 8.37907C70.799 10.0066 68.2238 11.9549 65.9095 14.1733C69.0863 15.0877 72.1074 16.3695 74.9239 17.9698C77.232 15.7063 79.8021 13.7091 82.5845 12.0277C79.7712 10.4722 76.7545 9.2393 73.5846 8.37907ZM54.5941 13.468C57.8807 13.4872 61.0753 13.8952 64.1341 14.6482C61.8544 17.0079 59.8505 19.6357 58.1745 22.4799C55.0954 21.6876 51.8787 21.2381 48.5675 21.1745C50.2652 18.3667 52.2919 15.78 54.5941 13.468ZM65.1564 14.9141C62.8349 17.2569 60.7956 19.8799 59.0936 22.7276C62.3082 23.6341 65.3654 24.9162 68.2146 26.5237C69.9118 23.6586 71.9422 21.0141 74.2523 18.6436C71.4127 17.0534 68.3634 15.7929 65.1564 14.9141ZM48.0334 22.0843C51.3659 22.1069 54.6035 22.5292 57.7006 23.3055C56.1184 26.1363 54.8566 29.1705 53.9642 32.359C50.8541 31.5658 47.6042 31.122 44.2588 31.0722C45.1601 27.902 46.4352 24.8891 48.0334 22.0843ZM58.6169 23.5466C57.0171 26.3704 55.7444 29.4038 54.8502 32.5955C58.0702 33.4932 61.1332 34.7676 63.9887 36.3682C64.8912 33.1796 66.1634 30.1464 67.756 27.3176C64.9048 25.71 61.8408 24.4354 58.6169 23.5466ZM44.0106 31.9859C47.3613 32.0169 50.6156 32.452 53.7269 33.2447C52.923 36.3833 52.4752 39.6644 52.429 43.0426C49.3138 42.2613 46.0597 41.8304 42.7108 41.7942C42.7479 38.4099 43.1971 35.1245 44.0106 31.9859ZM54.6128 33.4812C53.8099 36.6187 53.3708 39.9018 53.3431 43.283C56.54 44.1628 59.5832 45.4136 62.4235 46.9863C62.4837 43.6403 62.9378 40.3906 63.7415 37.2814C60.8946 35.6644 57.8341 34.3801 54.6128 33.4812ZM42.7109 42.7109C46.0619 42.748 49.3159 43.1891 52.4265 43.9879C52.4549 47.3105 52.8717 50.5403 53.6338 53.6342C50.5401 52.8722 47.3104 52.4554 43.9881 52.427C43.1892 49.3163 42.748 46.0621 42.7109 42.7109ZM53.3461 44.2357C53.3951 47.5682 53.8436 50.804 54.646 53.8972C57.7798 54.7536 60.7665 55.9663 63.5598 57.4891C62.8336 54.4531 62.4393 51.288 62.4176 48.0345C59.5882 46.422 56.547 45.1384 53.3461 44.2357ZM44.2358 53.3466C47.5682 53.3956 50.8037 53.8441 53.8968 54.6464C54.7532 57.78 55.9658 60.7665 57.4885 63.5596C54.4526 62.8335 51.2878 62.4393 48.0345 62.4176C46.4221 59.5883 45.1386 56.5473 44.2358 53.3466ZM54.9282 54.9286C55.8362 58.0835 57.1147 61.0815 58.7136 63.8725C61.7032 64.6848 64.5593 65.8213 67.2419 67.2418C65.8214 64.5595 64.685 61.7036 63.8727 58.7143C61.0816 57.1153 58.0834 55.8366 54.9282 54.9286ZM48.5773 63.3415C51.8652 63.4069 55.0576 63.8613 58.1106 64.6605C59.6488 67.2889 61.4664 69.7339 63.5227 71.9547C60.6199 71.3032 57.6026 70.9544 54.5058 70.9431C52.2444 68.6581 50.2512 66.1072 48.5773 63.3415ZM59.3962 65.0199C61.0426 67.6874 62.9878 70.151 65.1849 72.364C67.8065 73.0673 70.3262 74.0197 72.7169 75.1942C70.9776 73.2052 69.4241 71.0496 68.0836 68.7543C65.3692 67.1906 62.458 65.9303 59.3962 65.0199ZM55.4577 71.8742C58.647 71.9593 61.7451 72.4104 64.7114 73.1871C66.5767 75.0435 68.6166 76.7246 70.8045 78.2035C68.2373 77.7094 65.5864 77.4507 62.875 77.4507H62.8747C60.191 75.8749 57.7035 74.0009 55.4577 71.8742ZM66.6135 73.7351C68.7145 75.6564 71.0172 77.3607 73.4862 78.8126C75.0384 79.2197 76.5552 79.714 78.0312 80.2899C76.8511 79.3424 75.7236 78.3319 74.6539 77.2637C72.1311 75.8131 69.4387 74.6246 66.6135 73.7351ZM104.903 83.9291C102.327 84.6159 99.6519 85.0622 96.9045 85.2424C99.4621 86.1099 101.908 87.2188 104.216 88.5419C107.45 88.5349 110.595 88.1516 113.61 87.4335C110.881 85.9479 107.964 84.7648 104.903 83.9291ZM94.1599 84.4163C97.1886 84.4144 100.14 84.0824 102.98 83.4543C100.245 82.8494 97.4064 82.5191 94.4951 82.4938C92.9328 82.9197 91.3341 83.257 89.7045 83.5C91.2177 83.7257 92.7044 84.0326 94.1599 84.4163ZM114.899 87.1042C112.281 85.5983 109.484 84.3685 106.548 83.4543C109.483 82.5402 112.28 81.3106 114.898 79.8049C118.057 80.6678 121.064 81.9009 123.868 83.4547C121.064 85.0084 118.058 86.2414 114.899 87.1042ZM104.903 82.9795C107.964 82.1439 110.88 80.961 113.609 79.4756C110.642 78.7693 107.55 78.387 104.372 78.3681C102.086 79.6923 99.6618 80.8056 97.1271 81.6814C99.7965 81.8707 102.396 82.3112 104.903 82.9795ZM124.795 82.9247C122.039 81.349 119.085 80.0786 115.981 79.1599C118.688 77.4922 121.189 75.524 123.44 73.3016C126.645 74.1786 129.694 75.4368 132.532 77.0246C130.205 79.284 127.608 81.2683 124.795 82.9247ZM114.767 78.8206C117.538 77.1925 120.1 75.2464 122.402 73.0326C119.347 72.283 116.156 71.8777 112.874 71.8601C110.74 73.9775 108.378 75.8657 105.828 77.4849C108.905 77.6084 111.896 78.0654 114.767 78.8206ZM133.208 76.3531C130.386 74.7513 127.359 73.4692 124.176 72.5558C126.433 70.2128 128.418 67.6063 130.082 64.7872C133.306 65.6731 136.371 66.9448 139.223 68.5496C137.535 71.3914 135.512 74.0108 133.208 76.3531ZM123.165 72.2796C125.458 69.9573 127.473 67.3614 129.159 64.5453C126.062 63.7725 122.826 63.3536 119.495 63.3341C117.875 66.0937 115.946 68.6505 113.757 70.9572C116.999 71.0417 120.148 71.496 123.165 72.2796ZM139.682 67.756C136.83 66.1503 133.771 64.8703 130.553 63.9666C132.152 61.1106 133.424 58.0472 134.32 54.827C137.543 55.7224 140.605 57.0034 143.453 58.6172C142.564 61.8411 141.29 64.9049 139.682 67.756ZM129.639 63.7211C131.254 60.8737 132.537 57.813 133.434 54.5916C130.322 53.8024 127.068 53.371 123.717 53.3435C122.837 56.5403 121.586 59.5834 120.014 62.4235C123.331 62.4831 126.554 62.9301 129.639 63.7211ZM143.694 57.7009C140.838 56.1047 137.776 54.8346 134.556 53.941C135.348 50.8299 135.789 47.5792 135.837 44.2332C139.041 45.1359 142.084 46.42 144.916 48.0334C144.893 51.366 144.471 54.6037 143.694 57.7009ZM133.67 53.7055C134.461 50.5934 134.894 47.3385 134.923 43.9871C131.812 43.1884 128.558 42.7475 125.206 42.7108C125.17 46.0598 124.739 49.3141 123.957 52.4294C127.305 52.4752 130.557 52.9153 133.67 53.7055ZM144.91 46.9785C142.072 45.4091 139.033 44.1607 135.84 43.2822C135.813 39.9301 135.391 36.6722 134.617 33.5528C137.776 34.4565 140.778 35.7314 143.573 37.3272C144.387 40.4162 144.848 43.6486 144.91 46.9785ZM134.921 43.0406C134.874 39.6713 134.418 36.4007 133.601 33.2763C130.506 32.4775 127.27 32.0328 123.936 31.9879C124.731 35.1298 125.17 38.4137 125.206 41.7941C128.554 41.83 131.807 42.2602 134.921 43.0406ZM143.224 36.0839C140.441 34.5754 137.468 33.3743 134.349 32.526C133.499 29.4407 132.304 26.4986 130.808 23.7439C133.881 24.6502 136.803 25.9087 139.528 27.4726C141.073 30.165 142.32 33.0505 143.224 36.0839ZM133.321 32.2606C132.417 29.1361 131.149 26.166 129.566 23.3991C126.509 22.6025 123.313 22.1516 120.022 22.0905C121.576 24.9006 122.816 27.9092 123.693 31.0686C127.008 31.0933 130.232 31.5049 133.321 32.2606ZM138.582 25.9083C135.933 24.5198 133.116 23.4078 130.169 22.6106C128.626 19.9713 126.802 17.5166 124.738 15.2879C127.61 16.1777 130.346 17.3761 132.907 18.8445C135.049 20.9768 136.954 23.3456 138.582 25.9083ZM128.908 22.2907C127.23 19.5603 125.238 17.0427 122.985 14.7877C120.008 14.0105 116.899 13.5611 113.698 13.4804C115.912 15.8038 117.861 18.3823 119.495 21.1674C122.734 21.1861 125.885 21.5738 128.908 22.2907ZM130.287 16.4522C128.106 15.4331 125.823 14.5971 123.456 13.964C121.741 12.2682 119.879 10.7201 117.892 9.3403C122.455 10.9759 126.642 13.4015 130.287 16.4522ZM121.668 13.5281C119.499 11.5421 117.114 9.7875 114.552 8.30357C111.739 7.562 108.808 7.11333 105.792 6.99213C108.319 8.59363 110.663 10.4595 112.784 12.5508C115.833 12.5604 118.806 12.8972 121.668 13.5281ZM104.216 6.04213C106.687 6.04743 109.107 6.26756 111.46 6.68484C107.185 4.67621 102.504 3.38784 97.5745 2.97607C99.8901 3.80599 102.111 4.83488 104.216 6.04213ZM72.3334 158.849C69.2979 159.569 66.131 159.951 62.875 159.951H62.8747C60.1791 158.368 57.6814 156.484 55.4277 154.346C58.6866 154.263 61.8527 153.807 64.8845 153.018C67.1331 155.23 69.6315 157.189 72.3334 158.849ZM82.5845 154.882C79.7715 156.437 76.7552 157.67 73.5856 158.53C70.8001 156.903 68.225 154.955 65.9107 152.736C69.0872 151.822 72.108 150.54 74.9243 148.94C77.2323 151.203 79.8023 153.2 82.5845 154.882ZM91.2542 148.461C88.921 150.721 86.3187 152.705 83.5 154.36C80.6813 152.705 78.079 150.721 75.7459 148.461C78.5633 146.774 81.1651 144.764 83.5 142.482C85.8349 144.764 88.4367 146.774 91.2542 148.461ZM97.9521 139.993C96.2609 142.835 94.2342 145.453 91.9267 147.794C89.0965 146.122 86.486 144.117 84.1486 141.834C86.4493 139.485 88.4746 136.865 90.172 134.026C92.5155 136.306 95.126 138.312 97.9521 139.993ZM102.191 130.069C101.299 133.291 100.022 136.352 98.4122 139.2C95.5855 137.517 92.9795 135.503 90.6479 133.209C92.2496 130.388 93.5317 127.36 94.4451 124.177C96.782 126.428 99.3808 128.409 102.191 130.069ZM103.665 119.494C103.639 122.822 103.213 126.055 102.435 129.147C99.6268 127.464 97.0379 125.453 94.7214 123.167C95.505 120.15 95.9594 117 96.0438 113.758C98.3501 115.947 100.906 117.875 103.665 119.494ZM102.339 108.798C103.146 111.88 103.602 115.103 103.66 118.424C100.894 116.75 98.3431 114.757 96.0579 112.495C96.0464 109.357 95.6885 106.301 95.0202 103.363C97.2476 105.429 99.7011 107.254 102.339 108.798ZM98.3237 98.962C99.8513 101.637 101.085 104.502 101.98 107.513C99.2994 105.858 96.8248 103.902 94.6034 101.692C93.9035 99.1147 92.9627 96.637 91.8067 94.284C93.818 96.0427 95.9996 97.6114 98.3237 98.962ZM91.785 90.381C93.8593 92.4648 95.7099 94.7716 97.2975 97.2623C94.8279 95.6824 92.5398 93.8439 90.4713 91.7848C89.6704 90.4013 88.7923 89.0681 87.8428 87.791C89.1042 88.7257 90.4201 89.591 91.785 90.381ZM61.1721 77.4849C58.6224 75.8657 56.2604 73.9775 54.1261 71.8601C50.8437 71.8777 47.6531 72.283 44.5977 73.0326C46.9002 75.2464 49.4621 77.1925 52.2333 78.8206C55.1036 78.0654 58.095 77.6084 61.1721 77.4849ZM51.0191 79.1599C48.3124 77.4922 45.8106 75.524 43.5604 73.3016C40.3547 74.1786 37.3065 75.4368 34.4675 77.0246C36.7955 79.284 39.3921 81.2683 42.2049 82.9247C44.9612 81.349 47.9147 80.0787 51.0191 79.1599ZM41.3042 83.4547C38.5205 81.7693 35.9497 79.7675 33.6416 77.4992C30.8112 79.1703 28.2002 81.1734 25.8622 83.455C28.2001 85.7365 30.811 87.7396 33.6412 89.4106C35.9494 87.1421 38.5203 85.1402 41.3042 83.4547ZM32.9745 90.0808C30.1545 88.3945 27.5504 86.3847 25.2133 84.1026C22.8959 86.4674 20.8641 89.1131 19.1738 91.984C21.5073 94.2751 24.1151 96.2878 26.9433 97.9683C28.638 95.1009 30.6662 92.4539 32.9745 90.0808ZM26.4855 98.7627C23.659 97.0843 21.0476 95.0813 18.7029 92.8053C17.1278 95.6284 15.8784 98.6579 15.0054 101.843C17.3251 104.127 19.9169 106.136 22.7278 107.816C23.627 104.627 24.896 101.593 26.4855 98.7627ZM22.48 108.735C19.6726 107.08 17.076 105.107 14.74 102.864C13.9797 105.951 13.5709 109.177 13.5585 112.496C15.847 114.76 18.4023 116.756 21.1729 118.431C21.2301 115.089 21.6805 111.842 22.48 108.735ZM21.168 119.496C18.4199 117.883 15.8729 115.964 13.5737 113.786C13.6615 117 14.121 120.121 14.9108 123.108C17.1412 125.318 19.6256 127.273 22.3162 128.924C21.5898 125.897 21.1937 122.74 21.168 119.496ZM22.64 130.187C20.0398 128.67 17.6184 126.88 15.4154 124.856C16.326 127.764 17.5534 130.532 19.0572 133.119C21.154 135.194 23.4746 137.044 25.9797 138.628C24.575 135.971 23.4488 133.144 22.64 130.187ZM26.8815 140.245C28.1131 142.343 29.5228 144.323 31.0899 146.166C27.1542 143.429 23.7235 140.017 20.9656 136.097C22.8087 137.643 24.7875 139.032 26.8815 140.245ZM94.6676 8.06064C97.6549 7.35148 100.769 6.97084 103.971 6.95899C106.689 8.53888 109.207 10.4237 111.48 12.5667C108.254 12.6556 105.12 13.1107 102.117 13.8921C99.8681 11.6798 97.3697 9.72054 94.6676 8.06064ZM93.4155 8.37907C90.2455 9.2393 87.2289 10.4722 84.4155 12.0277C87.1979 13.7091 89.768 15.7063 92.0761 17.9698C94.8927 16.3695 97.9138 15.0877 101.09 14.1733C98.7762 11.9549 96.201 10.0066 93.4155 8.37907ZM83.5 12.5495C80.6812 14.2047 78.0788 16.1888 75.7455 18.4491C78.5631 20.1362 81.165 22.1464 83.5 24.4285C85.8351 22.1464 88.437 20.1362 91.2546 18.4491C88.9213 16.1888 86.3189 14.2047 83.5 12.5495ZM75.073 19.1158C72.7475 21.4749 70.7073 24.1159 69.0081 26.9829C71.8359 28.6613 74.4483 30.6644 76.7941 32.9408C78.4984 30.0803 80.5353 27.4411 82.8514 25.0763C80.514 22.7931 77.9033 20.7884 75.073 19.1158ZM68.5496 27.7769C66.9577 30.6061 65.6936 33.6444 64.8087 36.8402C67.6193 38.5006 70.2182 40.4814 72.555 42.7322C73.4622 39.5711 74.733 36.5637 76.3194 33.7584C73.9857 31.4683 71.3778 29.4565 68.5496 27.7769ZM64.5651 37.7621C63.7797 40.8825 63.3538 44.1459 63.3341 47.5055C66.0924 49.1247 68.6482 51.0519 70.954 53.2399C71.0325 49.967 71.488 46.7875 72.2788 43.7431C69.9622 41.4565 67.3733 39.4452 64.5651 37.7621ZM63.3416 48.5772C63.4069 51.8654 63.8614 55.0581 64.6608 58.1112C67.2989 59.6552 69.7523 61.4806 71.9797 63.5464C71.3179 60.6366 70.9605 57.6111 70.9425 54.5052C68.6577 52.244 66.107 50.251 63.3416 48.5772ZM65.0201 59.3969C65.9306 62.4584 67.1908 65.3694 68.7543 68.0835C71.0794 69.4414 73.2613 71.0178 75.2717 72.7847C74.0797 70.3844 73.1122 67.8529 72.3965 65.2178C70.1751 63.0075 67.7006 61.0514 65.0201 59.3969ZM69.801 69.801C71.3669 72.2334 73.1843 74.4886 75.2165 76.5298C76.5808 77.3197 77.8963 78.1846 79.1572 79.119C78.2572 77.9084 77.4213 76.6474 76.6544 75.3409C74.5805 73.2584 72.283 71.3988 69.801 69.801ZM112.783 95.0504C110.635 92.932 108.258 91.045 105.693 89.4298C108.818 89.3143 111.855 88.855 114.768 88.0886C117.539 89.7169 120.101 91.6631 122.404 93.8772C119.32 94.6338 116.098 95.0398 112.783 95.0504ZM123.441 93.6081C121.191 91.3856 118.689 89.4171 115.982 87.7493C119.086 86.8305 122.039 85.5603 124.795 83.9847C127.608 85.6413 130.205 87.6256 132.533 89.8853C129.694 91.4729 126.646 92.7311 123.441 93.6081ZM133.359 89.4106C131.051 87.1421 128.48 85.1402 125.696 83.4547C128.48 81.7693 131.05 79.7675 133.358 77.4992C136.189 79.1703 138.8 81.1734 141.138 83.455C138.8 85.7365 136.189 87.7396 133.359 89.4106ZM141.787 82.8075C139.45 80.5253 136.845 78.5153 134.025 76.829C136.316 74.4743 138.33 71.8499 140.017 69.0081C142.847 70.6854 145.457 72.6949 147.793 74.9831C146.109 77.8319 144.089 80.4583 141.787 82.8075ZM148.265 74.1631C145.918 71.8899 143.304 69.8899 140.476 68.2146C142.084 65.3655 143.366 62.3084 144.272 59.0939C147.083 60.7738 149.675 62.7824 151.995 65.0666C151.116 68.2738 149.855 71.3233 148.265 74.1631ZM152.26 64.0461C149.924 61.8029 147.327 59.8292 144.52 58.1748C145.312 55.0956 145.762 51.8788 145.826 48.5675C148.597 50.243 151.152 52.2388 153.441 54.5038C153.422 57.7913 153.014 60.9866 152.26 64.0461ZM153.429 53.2159C151.129 51.0375 148.581 49.1181 145.833 47.5046C145.814 44.2282 145.417 41.0412 144.684 37.9852C147.374 39.6366 149.859 41.5913 152.089 43.8018C152.887 46.8172 153.347 49.9695 153.429 53.2159ZM151.584 42.0534C149.381 40.0296 146.96 38.2397 144.36 36.723C143.565 33.8156 142.463 31.0349 141.092 28.4178C143.618 30.0226 145.956 31.8975 148.065 34.002C149.513 36.5284 150.699 39.2246 151.584 42.0534ZM146.187 31.0314C144.324 29.4538 142.321 28.0367 140.199 26.8016C138.949 24.6536 137.512 22.6274 135.911 20.7452C139.92 23.5324 143.404 27.0203 146.187 31.0314ZM64.1352 152.262C61.0485 153.022 57.8235 153.43 54.5052 153.443C52.2397 151.153 50.2433 148.597 48.5676 145.825C51.8955 145.762 55.1281 145.308 58.2214 144.508C59.8881 147.322 61.8763 149.924 64.1352 152.262ZM74.2526 148.266C71.4133 149.856 68.3643 151.117 65.1575 151.996C62.8568 149.674 60.8332 147.077 59.1404 144.259C62.3531 143.349 65.408 142.064 68.2549 140.454C69.944 143.293 71.9606 145.914 74.2526 148.266ZM82.8514 141.834C80.5141 144.117 77.9035 146.122 75.0733 147.794C72.7659 145.453 70.7392 142.835 69.0479 139.993C71.8741 138.312 74.4846 136.306 76.8281 134.026C78.5255 136.865 80.5507 139.485 82.8514 141.834ZM89.5017 133.359C87.8195 136.209 85.8007 138.836 83.5 141.186C81.1993 138.836 79.1805 136.209 77.4983 133.359C79.7874 131.03 81.805 128.434 83.5 125.621C85.1951 128.434 87.2127 131.03 89.5017 133.359ZM93.6993 123.441C92.8223 126.647 91.5641 129.695 89.9764 132.534C87.6956 130.184 85.6953 127.56 84.0293 124.717C85.6013 121.954 86.8666 118.993 87.7789 115.882C89.4598 118.627 91.4494 121.163 93.6993 123.441ZM95.1409 112.875C95.1233 116.157 94.718 119.348 93.9684 122.404C91.7257 120.071 89.7578 117.473 88.1169 114.66C88.8664 111.78 89.3158 108.78 89.4299 105.693C91.0681 108.295 92.9858 110.703 95.1409 112.875ZM93.7813 102.166C94.578 105.17 95.0406 108.31 95.1268 111.543C92.9588 109.254 91.0533 106.714 89.4586 103.97C89.4485 101.2 89.1684 98.4938 88.6433 95.8761C90.1506 98.138 91.873 100.244 93.7813 102.166ZM89.7375 92.3474C91.1641 94.8286 92.3373 97.4739 93.2217 100.248C91.2232 98.0558 89.4605 95.6447 87.9739 93.055C87.57 91.5843 87.0877 90.1461 86.5316 88.7451C87.5308 90.0071 88.6015 91.2099 89.7375 92.3474ZM53.243 70.9572C51.0537 68.6505 49.1254 66.0937 47.5055 63.3341C44.1742 63.3536 40.9376 63.7725 37.8411 64.5453C39.5268 67.3614 41.5425 69.9573 43.8347 72.2796C46.8516 71.496 50.0013 71.0417 53.243 70.9572ZM42.8238 72.5558C40.5669 70.2128 38.5816 67.6063 36.9184 64.7872C33.6939 65.6731 30.6292 66.9448 27.777 68.5496C29.4647 71.3914 31.4878 74.0108 33.7916 76.3531C36.6136 74.7513 39.6407 73.4692 42.8238 72.5558ZM32.9748 76.829C30.6844 74.4743 28.6698 71.85 26.983 69.0082C24.153 70.6854 21.5432 72.6949 19.2074 74.9831C20.891 77.8319 22.9112 80.4583 25.2133 82.8075C27.5505 80.5253 30.1548 78.5153 32.9748 76.829ZM24.5644 83.455C22.2633 81.1078 20.2375 78.4897 18.5391 75.653C16.2415 78.0099 14.2267 80.6438 12.5496 83.5C14.2186 86.3424 16.222 88.9646 18.5058 91.3128C20.211 88.4547 22.2482 85.8177 24.5644 83.455ZM18.0279 92.1351C15.7406 89.8118 13.7235 87.2216 12.0278 84.4155C10.4824 87.2106 9.25548 90.2063 8.39603 93.3537C10.0422 96.1658 12.0155 98.7632 14.2636 101.094C15.1718 97.9379 16.4426 94.9357 18.0279 92.1351ZM13.983 102.118C11.7404 99.8526 9.75561 97.3315 8.07632 94.6024C7.35717 97.6096 6.97105 100.746 6.95913 103.971C8.56071 106.726 10.4757 109.276 12.6552 111.573C12.7378 108.315 13.1942 105.149 13.983 102.118ZM12.6421 112.876C10.5138 110.731 8.61703 108.356 6.99228 105.792C7.11351 108.808 7.56234 111.741 8.30415 114.554C9.81774 117.166 11.6128 119.595 13.6479 121.799C13.0049 118.926 12.6583 115.94 12.6421 112.876ZM14.0887 123.582C14.7413 125.992 15.6045 128.315 16.6572 130.53C13.5105 126.828 11.0131 122.558 9.34107 117.894C10.7544 119.929 12.3443 121.833 14.0887 123.582ZM102.866 14.6482C105.925 13.8952 109.119 13.4872 112.406 13.468C114.708 15.78 116.735 18.3667 118.432 21.1745C115.121 21.2381 111.905 21.6876 108.826 22.4799C107.15 19.6357 105.146 17.0079 102.866 14.6482ZM101.844 14.9141C98.6366 15.7929 95.5874 17.0534 92.7478 18.6436C95.0579 21.0141 97.0882 23.6586 98.7854 26.5237C101.635 24.9162 104.692 23.6341 107.906 22.7276C106.204 19.8799 104.165 17.2569 101.844 14.9141ZM91.9271 19.1158C89.0968 20.7884 86.4861 22.7931 84.1486 25.0763C86.4647 27.4411 88.5016 30.0803 90.206 32.9408C92.5517 30.6644 95.1641 28.6613 97.9919 26.9829C96.2928 24.1159 94.2525 21.4749 91.9271 19.1158ZM83.5 25.7242C81.1842 28.0896 79.154 30.7358 77.4652 33.6068C79.7679 35.9445 81.7968 38.5525 83.5 41.379C85.2032 38.5525 87.2322 35.9445 89.5349 33.6068C87.8461 30.7358 85.8158 28.0896 83.5 25.7242ZM76.9918 34.4336C75.4192 37.2561 74.1719 40.2847 73.3008 43.4687C75.5588 45.7549 77.5544 48.3007 79.2391 51.0573C80.1501 47.9682 81.4091 45.0282 82.9707 42.2829C81.297 39.4265 79.2858 36.7918 76.9918 34.4336ZM73.0318 44.506C72.2753 47.5894 71.8694 50.8105 71.8587 54.1247C74.014 56.2969 75.9318 58.7051 77.5701 61.3069C77.685 58.1981 78.1402 55.1762 78.8995 52.2774C77.2553 49.454 75.2819 46.846 73.0318 44.506ZM71.8758 55.4593C71.9683 58.6602 72.4296 61.7687 73.2186 64.7437C75.1161 66.6543 76.8299 68.7476 78.3311 70.995C77.8225 68.4174 77.5514 65.7545 77.5415 63.03C75.9474 60.2876 74.0428 57.748 71.8758 55.4593ZM73.7781 66.6612C74.6882 69.5161 75.9041 72.2345 77.3873 74.778C78.477 75.8784 79.5059 77.0392 80.4685 78.2549C79.8908 76.7995 79.3926 75.3039 78.9794 73.7733C77.5026 71.2143 75.7558 68.8306 73.7781 66.6612ZM119.495 103.666C117.854 100.871 115.897 98.2845 113.673 95.9549C116.945 95.8762 120.123 95.4207 123.166 94.6302C125.48 96.974 127.511 99.5965 129.206 102.443C126.096 103.223 122.843 103.646 119.495 103.666ZM130.128 102.2C128.456 99.3512 126.455 96.7185 124.177 94.3539C127.36 93.4405 130.387 92.1584 133.209 90.5567C135.531 92.9176 137.568 95.5599 139.263 98.4277C136.413 100.036 133.351 101.311 130.128 102.2ZM140.057 97.9683C138.362 95.1009 136.334 92.4539 134.026 90.0808C136.845 88.3945 139.45 86.3847 141.787 84.1026C144.104 86.4674 146.136 89.1131 147.826 91.984C145.493 94.2751 142.885 96.2878 140.057 97.9683ZM148.494 91.3128C146.789 88.4547 144.752 85.8176 142.436 83.455C144.737 81.1078 146.763 78.4897 148.461 75.653C150.759 78.0099 152.773 80.6438 154.45 83.5C152.781 86.3423 150.778 88.9646 148.494 91.3128ZM154.972 82.5845C153.269 79.7651 151.24 77.1638 148.94 74.8321C150.54 72.015 151.822 68.9934 152.737 65.8161C154.992 68.1544 156.971 70.7615 158.621 73.5846C157.761 76.7545 156.528 79.7712 154.972 82.5845ZM158.939 72.3324C157.257 69.5936 155.267 67.064 153.017 64.7917C153.799 61.7875 154.254 58.6517 154.343 55.4242C156.523 57.7217 158.439 60.273 160.041 63.029C160.029 66.2305 159.648 69.3451 158.939 72.3324ZM160.008 61.2082C158.383 58.6439 156.486 56.2691 154.358 54.1242C154.349 51.0285 154.001 48.0122 153.352 45.1101C155.367 47.2926 157.147 49.6958 158.652 52.2792C159.42 55.1433 159.884 58.1319 160.008 61.2082ZM157.591 48.9182C156.195 46.9193 154.628 45.0486 152.911 43.327C152.278 40.9913 151.448 38.7369 150.439 36.583C153.498 40.2086 155.937 44.3749 157.591 48.9182ZM57.7455 143.683C54.6348 144.467 51.382 144.893 48.0334 144.916C46.4201 142.084 45.136 139.041 44.2333 135.838C47.5877 135.79 50.8463 135.346 53.9645 134.55C54.8653 137.769 56.1424 140.83 57.7455 143.683ZM67.7948 139.661C64.9458 141.271 61.8839 142.549 58.6618 143.441C57.0411 140.595 55.753 137.535 54.8504 134.314C58.0704 133.416 61.1333 132.142 63.9887 130.541C64.8985 133.756 66.184 136.812 67.7948 139.661ZM76.3522 133.209C74.0206 135.503 71.4146 137.517 68.5878 139.2C66.978 136.352 65.7007 133.291 64.8087 130.069C67.6193 128.409 70.2181 126.428 72.5549 124.177C73.4683 127.36 74.7504 130.388 76.3522 133.209ZM82.9707 124.717C81.3048 127.56 79.3044 130.184 77.0237 132.534C75.436 129.695 74.1777 126.647 73.3007 123.441C75.5507 121.163 77.5402 118.627 79.2211 115.882C80.1335 118.993 81.3988 121.954 82.9707 124.717ZM87.1337 114.791C86.2779 117.958 85.0501 120.973 83.5 123.786C81.95 120.973 80.7222 117.958 79.8664 114.791C81.3692 112.16 82.5938 109.349 83.5 106.4C84.4063 109.35 85.6309 112.16 87.1337 114.791ZM88.5421 104.216C88.5351 107.408 88.1616 110.513 87.4614 113.493C85.9781 110.747 84.8005 107.812 83.9743 104.732C84.6355 102.208 85.0661 99.5911 85.2423 96.9042C86.1099 99.462 87.2188 101.908 88.5421 104.216ZM87.12 93.4088C87.8878 96.2361 88.3591 99.1854 88.4985 102.221C87.1639 99.6421 86.0965 96.9024 85.3328 94.0387C85.3292 92.4224 85.2336 90.8276 85.0511 89.2595C85.6652 90.6855 86.3566 92.0703 87.12 93.4088ZM46.9863 62.4235C45.4137 59.5834 44.163 56.5403 43.2831 53.3435C39.9324 53.371 36.678 53.8024 33.5662 54.5916C34.4632 57.813 35.7457 60.8737 37.3607 63.7211C40.4458 62.9301 43.6688 62.4831 46.9863 62.4235ZM36.4467 63.9666C34.8481 61.1106 33.5757 58.0472 32.68 54.827C29.4574 55.7224 26.3954 57.0034 23.5468 58.6172C24.4356 61.8411 25.7101 64.9049 27.3177 67.756C30.1696 66.1503 33.2295 64.8703 36.4467 63.9666ZM26.5238 68.2146C24.9164 65.3655 23.6342 62.3084 22.7278 59.0939C19.9169 60.7738 17.325 62.7824 15.0053 65.0666C15.8843 68.2739 17.145 71.3233 18.7355 74.1631C21.0824 71.8899 23.6956 69.8899 26.5238 68.2146ZM18.0603 74.8321C16.4598 72.015 15.1779 68.9934 14.2635 65.8161C12.0078 68.1544 10.0287 70.7615 8.37923 73.5846C9.23945 76.7546 10.4723 79.7712 12.0278 82.5845C13.7315 79.7651 15.7596 77.1638 18.0603 74.8321ZM11.4904 83.5C9.92307 80.7504 8.65945 77.8053 7.74523 74.7103C6.25848 77.4508 5.07656 80.3808 4.24496 83.4548C5.07979 86.5407 6.26766 89.4815 7.76257 92.2312C8.6754 89.1576 9.93295 86.2322 11.4904 83.5ZM7.41189 93.4838C5.92786 90.8942 4.71359 88.1302 3.80743 85.2302C3.17595 88.0667 2.83982 91.0144 2.83297 94.0395C3.61179 96.9597 4.7065 99.7509 6.07825 102.374C6.2046 99.3143 6.66067 96.3392 7.41189 93.4838ZM6.04227 104.217C6.04759 106.688 6.26782 109.109 6.68528 111.461C4.67619 107.186 3.38758 102.504 2.97588 97.5739C3.80586 99.8898 4.83487 102.111 6.04227 104.217ZM109.299 23.3055C112.397 22.5292 115.634 22.1069 118.967 22.0843C120.565 24.8891 121.84 27.902 122.741 31.0722C119.396 31.122 116.146 31.5658 113.036 32.359C112.143 29.1705 110.882 26.1363 109.299 23.3055ZM108.383 23.5466C105.159 24.4354 102.095 25.71 99.244 27.3176C100.837 30.1464 102.109 33.1796 103.011 36.3682C105.867 34.7676 108.93 33.4932 112.15 32.5955C111.256 29.4038 109.983 26.3704 108.383 23.5466ZM98.4505 27.7769C95.6222 29.4565 93.0144 31.4683 90.6806 33.7584C92.267 36.5637 93.5379 39.5711 94.445 42.7322C96.7819 40.4814 99.3807 38.5006 102.191 36.8402C101.306 33.6444 100.042 30.6061 98.4505 27.7769ZM90.0083 34.4336C87.7143 36.7918 85.703 39.4264 84.0293 42.2829C85.591 45.0282 86.85 47.9682 87.761 51.0573C89.4456 48.3007 91.4413 45.7549 93.6992 43.4687C92.8281 40.2847 91.5809 37.2561 90.0083 34.4336ZM83.5 43.2141C81.96 46.0084 80.7381 49.0026 79.883 52.1479C81.3782 54.7704 82.5971 57.5709 83.5 60.5097C84.4029 57.5709 85.6218 54.7704 87.117 52.1479C86.262 49.0026 85.04 46.0084 83.5 43.2141ZM79.5535 53.4441C78.8438 56.4429 78.465 59.5697 78.458 62.7838C79.7787 65.0872 80.886 67.5287 81.7528 70.0813C81.9258 67.3678 82.3583 64.7249 83.0257 62.177C82.2023 59.1082 81.0298 56.1821 79.5535 53.4441ZM78.5015 64.7788C78.6382 67.7535 79.0935 70.6451 79.834 73.4203C80.6157 74.7837 81.3225 76.1955 81.949 77.6501C81.7699 76.1115 81.6745 74.5474 81.6676 72.9624C80.9039 70.0983 79.8363 67.3582 78.5015 64.7788ZM123.692 113.566C122.813 110.402 121.571 107.39 120.014 104.576C123.347 104.517 126.586 104.066 129.684 103.267C131.278 106.092 132.545 109.126 133.434 112.318C130.314 113.109 127.052 113.541 123.692 113.566ZM134.32 112.082C133.433 108.892 132.175 105.855 130.597 103.021C133.813 102.114 136.871 100.831 139.721 99.2222C141.31 102.054 142.572 105.094 143.453 108.292C140.605 109.906 137.543 111.187 134.32 112.082ZM144.272 107.816C143.373 104.627 142.104 101.593 140.515 98.7627C143.341 97.0843 145.952 95.0813 148.297 92.8053C149.872 95.6284 151.122 98.6579 151.995 101.843C149.675 104.127 147.083 106.136 144.272 107.816ZM152.736 101.094C151.828 97.9379 150.557 94.9357 148.972 92.1351C151.259 89.8118 153.277 87.2216 154.972 84.4155C156.518 87.2106 157.745 90.2063 158.604 93.3537C156.958 96.1658 154.985 98.7632 152.736 101.094ZM159.237 92.2312C158.325 89.1576 157.067 86.2322 155.51 83.5C157.077 80.7504 158.341 77.8053 159.255 74.7103C160.742 77.4508 161.923 80.3808 162.755 83.4548C161.92 86.5407 160.732 89.4815 159.237 92.2312ZM163.193 81.6793C162.29 78.7899 161.081 76.0355 159.604 73.4542C160.346 70.6177 160.796 67.6636 160.922 64.6256C162.293 67.2487 163.388 70.0396 164.167 72.9594C164.154 75.9532 163.818 78.8708 163.193 81.6793ZM164.034 69.453C163.202 67.1274 162.17 64.8973 160.958 62.7834C160.952 60.261 160.723 57.7911 160.289 55.3927C162.329 59.7172 163.631 64.458 164.034 69.453ZM53.7271 133.665C50.6085 134.459 47.3464 134.895 43.9873 134.924C43.1885 131.813 42.7475 128.558 42.7108 125.206C46.0602 125.17 49.3148 124.739 52.4303 123.957C52.4833 127.303 52.9303 130.554 53.7271 133.665ZM63.7415 129.628C60.8947 131.245 57.8342 132.529 54.613 133.428C53.8172 130.319 53.3787 127.066 53.3439 123.717C56.5412 122.837 59.5847 121.586 62.4253 120.013C62.4918 123.327 62.945 126.547 63.7415 129.628ZM72.2787 123.167C69.9621 125.453 67.3733 127.464 64.5651 129.147C63.7868 126.055 63.3615 122.822 63.3347 119.494C66.0937 117.875 68.65 115.947 70.9562 113.758C71.0407 117 71.4951 120.15 72.2787 123.167ZM78.8832 114.66C77.2422 117.473 75.2744 120.071 73.0317 122.404C72.2821 119.348 71.8767 116.157 71.8591 112.875C74.0142 110.703 75.9319 108.295 77.5701 105.693C77.6842 108.78 78.1337 111.78 78.8832 114.66ZM83.0257 104.733C82.1995 107.812 81.022 110.747 79.5387 113.493C78.8385 110.513 78.465 107.408 78.458 104.216C79.7812 101.908 80.8902 99.462 81.7577 96.9042C81.9339 99.5911 82.3646 102.208 83.0257 104.733ZM84.4162 94.1594C84.4144 97.1139 84.0985 99.9949 83.5 102.771C82.9016 99.9949 82.5857 97.1139 82.5839 94.1594C82.9675 92.704 83.2744 91.2175 83.5 89.7045C83.7257 91.2175 84.0326 92.704 84.4162 94.1594ZM43.0428 52.4294C42.2614 49.3141 41.8304 46.0598 41.7942 42.7108C38.4425 42.7475 35.1878 43.1884 32.0766 43.9871C32.1058 47.3385 32.5391 50.5934 33.3302 53.7055C36.4429 52.9153 39.6952 52.4752 43.0428 52.4294ZM32.444 53.941C31.6525 50.8299 31.2106 47.5792 31.1627 44.2332C27.9594 45.1359 24.9158 46.42 22.0843 48.0334C22.107 51.366 22.5292 54.6037 23.3056 57.7009C26.1616 56.1047 29.2245 54.8346 32.444 53.941ZM22.48 58.1748C21.6877 55.0956 21.2382 51.8788 21.1745 48.5675C18.4034 50.243 15.8478 52.2388 13.5589 54.5038C13.5782 57.7913 13.9865 60.9866 14.7399 64.0461C17.0759 61.8029 19.6726 59.8292 22.48 58.1748ZM13.9829 64.7917C13.2012 61.7875 12.746 58.6517 12.6575 55.4242C10.477 57.7217 8.56128 60.273 6.95913 63.029C6.97096 66.2305 7.35161 69.3451 8.06079 72.3325C9.74334 69.5936 11.7334 67.064 13.9829 64.7917ZM7.39562 73.4542C6.65409 70.6177 6.20368 67.6636 6.07825 64.6256C4.70667 67.2487 3.61207 70.0396 2.83327 72.9594C2.84647 75.9532 3.18217 78.8708 3.80743 81.6793C4.71028 78.7899 5.91898 76.0356 7.39562 73.4542ZM3.29588 83.4548C2.68927 85.7517 2.27368 88.1262 2.06714 90.5603C1.66698 88.267 1.45835 85.9079 1.45835 83.5C1.45835 81.0817 1.66879 78.7126 2.07234 76.41C2.28061 78.8228 2.69432 81.177 3.29588 83.4548ZM113.273 33.2447C116.384 32.452 119.639 32.0169 122.989 31.9859C123.803 35.1245 124.252 38.4099 124.289 41.7942C120.94 41.8304 117.686 42.2613 114.571 43.0426C114.525 39.6644 114.077 36.3833 113.273 33.2447ZM112.387 33.4812C109.166 34.3801 106.105 35.6644 103.259 37.2814C104.062 40.3906 104.516 43.6403 104.576 46.9863C107.417 45.4136 110.46 44.1628 113.657 43.283C113.629 39.9018 113.19 36.6187 112.387 33.4812ZM102.435 37.7621C99.6268 39.4452 97.0379 41.4565 94.7213 43.7431C95.512 46.7875 95.9675 49.967 96.046 53.2399C98.3519 51.0519 100.908 49.1247 103.666 47.5055C103.646 44.1459 103.22 40.8825 102.435 37.7621ZM93.9683 44.506C91.7182 46.846 89.7448 49.454 88.1006 52.2774C88.8598 55.1762 89.315 58.1981 89.4299 61.3069C91.0682 58.7051 92.9861 56.2969 95.1413 54.1247C95.1307 50.8105 94.7248 47.5894 93.9683 44.506ZM87.4465 53.4441C85.9702 56.1821 84.7978 59.1082 83.9743 62.1771C84.6417 64.7249 85.0742 67.3678 85.2472 70.0813C86.114 67.5287 87.2213 65.0872 88.5421 62.7838C88.535 59.5697 88.1563 56.4429 87.4465 53.4441ZM82.5838 72.7758L82.5839 72.8408C82.9675 74.2961 83.2744 75.7825 83.5 77.2955C83.7257 75.7825 84.0326 74.2961 84.4162 72.8407L84.4162 72.7758C84.4162 69.8123 84.1002 66.9226 83.5 64.1386C82.8999 66.9226 82.5838 69.8123 82.5838 72.7758ZM125.206 124.289C125.169 120.908 124.73 117.623 123.935 114.48C127.29 114.436 130.55 113.996 133.67 113.204C134.468 116.344 134.902 119.629 134.924 123.013C131.813 123.811 128.558 124.252 125.206 124.289ZM135.839 122.766C135.797 119.389 135.355 116.108 134.556 112.969C137.776 112.075 140.839 110.805 143.694 109.209C144.478 112.334 144.901 115.602 144.916 118.966C142.085 120.58 139.042 121.864 135.839 122.766ZM145.827 118.431C145.77 115.089 145.32 111.842 144.52 108.735C147.327 107.08 149.924 105.107 152.26 102.864C153.02 105.951 153.429 109.177 153.442 112.496C151.153 114.76 148.598 116.756 145.827 118.431ZM154.345 111.573C154.262 108.315 153.806 105.149 153.017 102.118C155.26 99.8526 157.244 97.3315 158.924 94.6024C159.643 97.6096 160.029 100.746 160.041 103.971C158.439 106.726 156.524 109.276 154.345 111.573ZM160.922 102.374C160.795 99.3142 160.339 96.3392 159.588 93.4838C161.072 90.8942 162.286 88.1302 163.193 85.2302C163.824 88.0667 164.16 91.0144 164.167 94.0395C163.388 96.9597 162.294 99.7509 160.922 102.374ZM164.933 90.5603C164.726 88.1262 164.311 85.7517 163.704 83.4548C164.306 81.177 164.719 78.8228 164.928 76.41C165.331 78.7126 165.542 81.0817 165.542 83.5C165.542 85.9079 165.333 88.267 164.933 90.5603ZM52.4259 123.012C49.3155 123.811 46.0617 124.252 42.7109 124.289C42.7484 120.905 43.1978 117.621 44.0115 114.482C47.3255 114.452 50.5471 114.036 53.6336 113.275C52.8646 116.397 52.4473 119.658 52.4259 123.012ZM62.4171 118.966C59.5874 120.578 56.546 121.862 53.3449 122.765C53.3869 119.4 53.8362 116.134 54.6458 113.012C57.7797 112.156 60.7664 110.943 63.5598 109.42C62.8268 112.485 62.432 115.68 62.4171 118.966ZM70.9421 112.495C68.6569 114.757 66.1058 116.75 63.3398 118.424C63.3985 115.103 63.854 111.88 64.6607 108.798C67.299 107.254 69.7524 105.429 71.9798 103.363C71.3116 106.301 70.9536 109.357 70.9421 112.495ZM77.5415 103.97C75.9467 106.713 74.0413 109.254 71.8733 111.543C71.9595 108.31 72.422 105.17 73.2187 102.166C75.127 100.244 76.8494 98.138 78.3568 95.8761C77.8316 98.4938 77.5516 101.2 77.5415 103.97ZM81.6673 94.0387C80.9036 96.9024 79.8361 99.6421 78.5015 102.221C78.641 99.1853 79.1123 96.2361 79.8801 93.4088C80.6434 92.0703 81.3348 90.6854 81.949 89.2595C81.7664 90.8276 81.6709 92.4224 81.6673 94.0387ZM41.7941 41.7941C41.8303 38.4137 42.2687 35.1298 43.0636 31.9879C39.7303 32.0328 36.4936 32.4775 33.3992 33.2763C32.5822 36.4007 32.1264 39.6713 32.0791 43.0406C35.1934 42.2602 38.4465 41.83 41.7941 41.7941ZM31.1598 43.2822C31.1867 39.9301 31.6091 36.6722 32.3826 33.5528C29.224 34.4565 26.2221 35.7314 23.4271 37.3273C22.6131 40.4162 22.1523 43.6486 22.0905 46.9785C24.9277 45.4091 27.9671 44.1607 31.1598 43.2822ZM21.1674 47.5046C21.1863 44.2282 21.583 41.0412 22.3161 37.9852C19.6256 39.6366 17.1413 41.5913 14.9109 43.8018C14.1135 46.8172 13.6528 49.9695 13.5713 53.216C15.8709 51.0375 18.4186 49.1181 21.1674 47.5046ZM12.6418 54.1242C12.6515 51.0285 12.9986 48.0122 13.6481 45.1101C11.6328 47.2927 9.85282 49.6958 8.34852 52.2792C7.58023 55.1434 7.11591 58.1319 6.99228 61.2082C8.61693 58.644 10.5136 56.2691 12.6418 54.1242ZM6.04227 62.7834C4.83019 64.8973 3.7979 67.1275 2.96624 69.453C3.36891 64.4581 4.6714 59.7172 6.71146 55.3927C6.27703 57.7912 6.04769 60.261 6.04227 62.7834ZM114.574 43.9879C117.684 43.1891 120.938 42.748 124.289 42.7109C124.252 46.0621 123.811 49.3163 123.012 52.427C119.69 52.4554 116.46 52.8722 113.366 53.6342C114.128 50.5403 114.545 47.3105 114.574 43.9879ZM113.654 44.2357C110.453 45.1384 107.412 46.422 104.582 48.0345C104.561 51.288 104.166 54.4531 103.44 57.4891C106.234 55.9663 109.22 54.7536 112.354 53.8972C113.156 50.804 113.605 47.5682 113.654 44.2357ZM103.658 48.5772C100.893 50.251 98.3423 52.244 96.0575 54.5052C96.0395 57.6111 95.6821 60.6366 95.0204 63.5464C97.2477 61.4806 99.7011 59.6552 102.339 58.1112C103.139 55.0581 103.593 51.8654 103.658 48.5772ZM95.1242 55.4593C92.9573 57.748 91.0527 60.2876 89.4586 63.03C89.4487 65.7545 89.1775 68.4174 88.6689 70.995C90.1702 68.7476 91.884 66.6543 93.7815 64.7437C94.5705 61.7686 95.0317 58.6602 95.1242 55.4593ZM88.4985 64.7788C87.1637 67.3582 86.0962 70.0983 85.3325 72.9625C85.3255 74.5474 85.2302 76.1115 85.0511 77.6501C85.6775 76.1955 86.3844 74.7837 87.166 73.4202C87.9066 70.6451 88.3619 67.7535 88.4985 64.7788ZM123.959 134.921C124.74 131.807 125.17 128.554 125.206 125.206C128.553 125.17 131.806 124.74 134.92 123.96C134.865 127.297 134.41 130.537 133.601 133.633C130.513 134.43 127.284 134.875 123.959 134.921ZM134.617 133.357C135.384 130.266 135.806 127.038 135.839 123.718C139.032 122.84 142.071 121.592 144.908 120.023C144.839 123.32 144.379 126.522 143.573 129.582C140.778 131.178 137.776 132.453 134.617 133.357ZM144.684 128.924C145.41 125.897 145.806 122.74 145.832 119.496C148.58 117.883 151.127 115.964 153.426 113.786C153.339 117 152.879 120.121 152.089 123.108C149.859 125.318 147.374 127.273 144.684 128.924ZM153.352 121.799C153.995 118.926 154.342 115.94 154.358 112.876C156.486 110.731 158.383 108.356 160.008 105.792C159.887 108.808 159.438 111.741 158.696 114.554C157.182 117.166 155.387 119.595 153.352 121.799ZM160.315 111.461C160.732 109.109 160.952 106.688 160.958 104.217C162.165 102.111 163.194 99.8898 164.024 97.5739C163.612 102.504 162.324 107.186 160.315 111.461ZM9.40897 48.9182C10.8053 46.9194 12.3723 45.0486 14.0889 43.327C14.7215 40.9913 15.5521 38.737 16.5613 36.5831C13.5019 40.2086 11.0632 44.3749 9.40897 48.9182ZM15.4156 42.0534C17.6186 40.0296 20.0398 38.2397 22.64 36.723C23.435 33.8156 24.5367 31.0349 25.9082 28.4178C23.3819 30.0226 21.0441 31.8976 18.9354 34.002C17.4872 36.5285 16.3015 39.2247 15.4156 42.0534ZM23.7761 36.0839C26.5588 34.5754 29.5323 33.3743 32.6513 32.526C33.5008 29.4407 34.6959 26.4986 36.1924 23.7439C33.1192 24.6502 30.197 25.9087 27.4725 27.4726C25.927 30.165 24.6799 33.0505 23.7761 36.0839ZM33.679 32.2606C36.7678 31.5049 39.9916 31.0933 43.3074 31.0686C44.1845 27.9092 45.424 24.9006 46.9785 22.0905C43.687 22.1516 40.4909 22.6025 37.4343 23.3991C35.8515 26.166 34.5835 29.1361 33.679 32.2606ZM152.911 123.582C154.656 121.833 156.246 119.929 157.659 117.894C155.987 122.558 153.49 126.828 150.343 130.53C151.396 128.315 152.259 125.992 152.911 123.582ZM144.36 130.187C146.96 128.67 149.382 126.88 151.585 124.856C150.674 127.764 149.447 130.532 147.943 133.119C145.846 135.194 143.525 137.043 141.02 138.627C142.425 135.971 143.551 133.144 144.36 130.187ZM134.348 134.384C137.468 133.535 140.441 132.334 143.224 130.826C142.305 133.91 141.031 136.841 139.45 139.572C136.73 141.125 133.814 142.375 130.748 143.274C132.272 140.488 133.488 137.509 134.348 134.384ZM123.718 135.841C127.025 135.814 130.24 135.403 133.321 134.649C132.405 137.814 131.115 140.82 129.504 143.617C126.466 144.404 123.291 144.849 120.022 144.91C121.591 142.073 122.839 139.033 123.718 135.841ZM79.0262 93.055C79.43 91.5843 79.9124 90.1461 80.4684 88.7451C79.4692 90.0071 78.3986 91.2099 77.2626 92.3474C75.8359 94.8286 74.6627 97.4739 73.7783 100.248C75.7768 98.0558 77.5395 95.6447 79.0262 93.055ZM72.3967 101.692C73.0966 99.1147 74.0374 96.6369 75.1933 94.284C73.1821 96.0427 71.0004 97.6114 68.6763 98.962C67.1488 101.637 65.9154 104.502 65.0201 107.513C67.7006 105.858 70.1753 103.902 72.3967 101.692ZM63.8727 108.195C64.6723 105.252 65.7861 102.439 67.1757 99.7932C64.4939 101.207 61.6393 102.337 58.6519 103.144C57.0816 105.905 55.8242 108.866 54.9279 111.981C58.0831 111.073 61.0815 109.794 63.8727 108.195ZM53.8965 112.263C54.7422 109.168 55.9353 106.217 57.4314 103.454C54.413 104.171 51.2674 104.561 48.0345 104.582C46.4374 107.385 45.1629 110.395 44.2616 113.563C47.5847 113.512 50.8115 113.063 53.8965 112.263ZM113.103 54.6464C116.196 53.8441 119.432 53.3956 122.764 53.3466C121.861 56.5473 120.578 59.5883 118.966 62.4176C115.712 62.4393 112.547 62.8335 109.512 63.5596C111.034 60.7665 112.247 57.78 113.103 54.6464ZM86.5316 78.2549C87.1093 76.7995 87.6074 75.3039 88.0206 73.7733C89.4975 71.2143 91.2443 68.8306 93.222 66.6611C92.3119 69.5161 91.096 72.2345 89.6128 74.778C88.523 75.8784 87.4942 77.0392 86.5316 78.2549ZM91.7284 72.7847C92.9203 70.3844 93.8879 67.8529 94.6036 65.2178C96.8249 63.0075 99.2995 61.0514 101.98 59.3969C101.069 62.4584 99.8093 65.3694 98.2457 68.0835C95.9206 69.4414 93.7388 71.0179 91.7284 72.7847ZM99.7581 67.2418C101.179 64.5595 102.315 61.7036 103.127 58.7143C105.918 57.1153 108.917 55.8366 112.072 54.9286C111.164 58.0835 109.885 61.0815 108.286 63.8725C105.297 64.6848 102.441 65.8213 99.7581 67.2418ZM58.0477 102.356C55.0138 103.145 51.8426 103.594 48.5773 103.658C50.2733 100.856 52.2971 98.2745 54.5955 95.9665C57.6603 95.9489 60.6467 95.6006 63.521 94.9557C61.4373 97.2063 59.5987 99.6872 58.0477 102.356ZM68.0045 98.2912C65.2924 99.8455 62.3847 101.097 59.3274 102.001C60.9879 99.2908 62.9559 96.79 65.183 94.5466C67.8049 93.8433 70.3249 92.8909 72.716 91.7163C70.9427 93.7442 69.3626 95.9454 68.0045 98.2912ZM76.5287 91.7848C74.4603 93.8439 72.1721 95.6824 69.7025 97.2623C71.2902 94.7716 73.1407 92.4648 75.215 90.381C76.5799 89.591 77.8959 88.7257 79.1572 87.791C78.2078 89.0681 77.3296 90.4013 76.5287 91.7848ZM47.5046 21.1674C49.1394 18.3823 51.0882 15.8038 53.3023 13.4804C50.1015 13.5611 46.9922 14.0105 44.0155 14.7877C41.7616 17.0427 39.7704 19.5603 38.0918 22.2907C41.1154 21.5738 44.2663 21.1861 47.5046 21.1674ZM36.8312 22.6106C38.3736 19.9713 40.1977 17.5166 42.2623 15.2879C39.3905 16.1777 36.6545 17.3761 34.0929 18.8445C31.9514 20.9768 30.0456 23.3456 28.4177 25.9083C31.0673 24.5198 33.8845 23.4078 36.8312 22.6106ZM26.8014 26.8016C24.6791 28.0367 22.6757 29.4538 20.8126 31.0315C23.596 27.0203 27.0804 23.5324 31.0886 20.7452C29.488 22.6274 28.0515 24.6536 26.8014 26.8016ZM108.889 64.6605C111.942 63.8613 115.135 63.4069 118.423 63.3415C116.749 66.1072 114.756 68.6581 112.494 70.9431C109.397 70.9544 106.38 71.3032 103.477 71.9547C105.534 69.7339 107.351 67.2889 108.889 64.6605ZM107.604 65.0199C104.542 65.9303 101.631 67.1906 98.9165 68.7543C97.576 71.0496 96.0225 73.2053 94.2831 75.1943C96.6739 74.0197 99.1935 73.0673 101.815 72.364C104.012 70.151 105.957 67.6874 107.604 65.0199ZM97.199 69.801C94.717 71.3988 92.4195 73.2584 90.3456 75.3409C89.5788 76.6474 88.7429 77.9084 87.8428 79.119C89.1037 78.1847 90.4192 77.3197 91.7835 76.5298C93.8157 74.4886 95.6331 72.2334 97.199 69.801ZM113.785 153.427C115.963 151.128 117.882 148.581 119.495 145.833C122.71 145.814 125.839 145.432 128.842 144.725C127.177 147.415 125.208 149.897 122.983 152.123C120.034 152.893 116.955 153.341 113.785 153.427ZM124.736 151.623C126.773 149.424 128.576 147.005 130.105 144.407C133.043 143.617 135.852 142.514 138.496 141.137C136.887 143.648 135.01 145.971 132.906 148.066C130.344 149.535 127.608 150.733 124.736 151.623ZM135.91 146.166C137.477 144.323 138.887 142.343 140.118 140.245C142.212 139.032 144.191 137.643 146.035 136.097C143.277 140.017 139.846 143.429 135.91 146.166ZM64.7094 93.7235C61.7741 94.4919 58.7099 94.9415 55.5559 95.0331C57.8194 92.9038 60.3262 91.0302 63.0302 89.4584C65.6869 89.4487 68.2851 89.1907 70.8027 88.7062C68.6148 90.1854 66.5747 91.8668 64.7094 93.7235ZM74.6524 89.6472C72.1294 91.0978 69.4366 92.2863 66.6111 93.1757C68.712 91.2542 71.0146 89.5496 73.4836 88.0976C75.0367 87.6903 76.5544 87.1958 78.0312 86.6195C76.8506 87.5675 75.7226 88.5784 74.6524 89.6472ZM54.2162 12.5508C56.337 10.4595 58.6807 8.59363 61.2084 6.99213C58.1924 7.11333 55.2606 7.562 52.4477 8.30357C49.8863 9.7875 47.5013 11.5421 45.3317 13.5281C48.1939 12.8972 51.1665 12.5604 54.2162 12.5508ZM43.5438 13.964C41.1772 14.5971 38.8936 15.4331 36.7127 16.4523C40.3584 13.4015 44.545 10.9759 49.1079 9.3403C47.1206 10.7201 45.259 12.2682 43.5438 13.964ZM102.289 73.1871C105.255 72.4104 108.353 71.9593 111.542 71.8742C109.297 74.0009 106.809 75.8749 104.125 77.4507H104.125C101.414 77.4507 98.7627 77.7094 96.1956 78.2035C98.3834 76.7246 100.423 75.0435 102.289 73.1871ZM100.387 73.7351C97.5614 74.6246 94.8689 75.8131 92.3462 77.2637C91.2764 78.3319 90.149 79.3424 88.9688 80.2899C90.4448 79.714 91.9617 79.2197 93.5138 78.8125C95.9828 77.3607 98.2856 75.6564 100.387 73.7351ZM105.944 159.911C108.45 158.308 110.773 156.445 112.875 154.359C115.892 154.343 118.833 154.007 121.666 153.382C119.496 155.368 117.111 157.123 114.55 158.607C111.785 159.335 108.905 159.781 105.944 159.911ZM117.89 157.57C119.877 156.19 121.739 154.642 123.454 152.947C125.821 152.314 128.105 151.478 130.286 150.459C126.64 153.509 122.453 155.935 117.89 157.57ZM73.1298 87.2422C70.4436 87.9378 67.6501 88.3665 64.7791 88.4984C67.358 87.1639 70.0974 86.0965 72.9609 85.3329C74.4383 85.3296 75.8978 85.2495 77.3354 85.0964C75.8886 85.7337 74.4849 86.4509 73.1298 87.2422ZM62.7837 6.04213C60.3129 6.04743 57.8926 6.26756 55.5404 6.68485C59.8154 4.67621 64.4959 3.38784 69.4255 2.97607C67.11 3.80599 64.8891 4.83488 62.7837 6.04213ZM93.8676 79.6679C96.6137 78.9566 99.4721 78.5243 102.411 78.4028C99.877 79.7308 97.1864 80.8004 94.3741 81.5763C94.2939 81.5758 94.2136 81.5756 94.1333 81.5756C92.6237 81.5756 91.1328 81.6558 89.6647 81.8122C91.1105 81.1753 92.5134 80.4586 93.8676 79.6679ZM97.9063 163.903C100.16 163.074 102.323 162.055 104.375 160.867C106.789 160.853 109.156 160.633 111.457 160.225C107.278 162.188 102.713 163.463 97.9063 163.903Z" fill="white"/>
</svg>
